<?xml version="1.0" encoding="UTF-8" standalone="no"?>
<svg
   xmlns:dc="http://purl.org/dc/elements/1.1/"
   xmlns:cc="http://creativecommons.org/ns#"
   xmlns:rdf="http://www.w3.org/1999/02/22-rdf-syntax-ns#"
   xmlns:svg="http://www.w3.org/2000/svg"
   xmlns="http://www.w3.org/2000/svg"
   xmlns:sodipodi="http://sodipodi.sourceforge.net/DTD/sodipodi-0.dtd"
   xmlns:inkscape="http://www.inkscape.org/namespaces/inkscape"
   viewBox="0 0 841.9 595.3"
   version="1.1"
   id="svg10"
   sodipodi:docname="logo.5d5d9eef.svg"
   inkscape:version="0.92.2 (5c3e80d, 2017-08-06)">
  <metadata
     id="metadata16">
    <rdf:RDF>
      <cc:Work
         rdf:about="">
        <dc:format>image/svg+xml</dc:format>
        <dc:type
           rdf:resource="http://purl.org/dc/dcmitype/StillImage" />
      </cc:Work>
    </rdf:RDF>
  </metadata>
  <defs
     id="defs14">
    <filter
       inkscape:collect="always"
       style="color-interpolation-filters:sRGB"
       id="filter8585"
       x="-0.062851275"
       width="1.1257026"
       y="-0.064366778"
       height="1.1287336">
      <feGaussianBlur
         inkscape:collect="always"
         stdDeviation="8.2533128"
         id="feGaussianBlur8587" />
    </filter>
    <filter
       inkscape:collect="always"
       style="color-interpolation-filters:sRGB"
       id="filter8595"
       x="-0.03"
       width="1.06"
       y="-0.03"
       height="1.06">
      <feGaussianBlur
         inkscape:collect="always"
         stdDeviation="6.7998535"
         id="feGaussianBlur8597" />
    </filter>
    <filter
       inkscape:collect="always"
       style="color-interpolation-filters:sRGB"
       id="filter8649"
       x="-0.035701967"
       width="1.0714039"
       y="-0.031731779"
       height="1.0634636">
      <feGaussianBlur
         inkscape:collect="always"
         stdDeviation="5.7179457"
         id="feGaussianBlur8651" />
    </filter>
    <filter
       inkscape:collect="always"
       style="color-interpolation-filters:sRGB"
       id="filter8673"
       x="-0.093492051"
       width="1.1869841"
       y="-0.09864621"
       height="1.1972924">
      <feGaussianBlur
         inkscape:collect="always"
         stdDeviation="16.801718"
         id="feGaussianBlur8675" />
    </filter>
  </defs>
  <sodipodi:namedview
     pagecolor="#ffffff"
     bordercolor="#666666"
     borderopacity="1"
     objecttolerance="10"
     gridtolerance="10"
     guidetolerance="10"
     inkscape:pageopacity="0"
     inkscape:pageshadow="2"
     inkscape:window-width="1280"
     inkscape:window-height="971"
     id="namedview12"
     showgrid="false"
     inkscape:zoom="1.0649856"
     inkscape:cx="452.0119"
     inkscape:cy="289.39512"
     inkscape:window-x="-8"
     inkscape:window-y="-8"
     inkscape:window-maximized="1"
     inkscape:current-layer="svg10" />
  <circle
     style="fill:#a02c2c;stroke-width:1;filter:url(#filter8595)"
     id="circle8589"
     cy="296.50006"
     cx="426.09875"
     r="271.99414" />
  <circle
     r="271.99414"
     cx="426.09875"
     cy="296.50006"
     id="circle8475"
     style="fill:#a02c2c;stroke-width:1" />
  <ellipse
     cx="426.09875"
     cy="296.50006"
     id="circle8449"
     style="fill:#c83737;stroke-width:1;filter:url(#filter8673)"
     rx="215.65535"
     ry="204.38759" />
  <path
     style="fill:#61dafb"
     inkscape:connector-curvature="0"
     id="path6"
     d="M 426.09875,296.50006 Z" />
  <path
     d="m 613.3307,404.55441 c 14.32205,-24.80651 -3.17044,-66.25107 -42.382,-108.328 39.01834,-42.19867 56.43169,-83.64085 42.04626,-108.43307 -3.28673,-5.76486 -8.29442,-10.48792 -14.62961,-14.14555 l -9.82712,17.02108 c 3.51107,2.02713 5.93858,4.34457 7.55558,7.00827 6.94329,11.94677 -1.64151,37.21611 -21.98652,64.34619 -4.98198,6.69006 -10.71859,13.45328 -16.84866,20.1929 -12.84497,-12.30104 -27.54859,-24.55567 -43.6647,-36.3028 -2.15171,-20.06979 -5.43419,-39.06235 -9.71842,-56.4961 38.23538,-8.76118 68.90694,-7.94683 84.78311,1.21928 l 9.82712,-17.02108 C 577.49562,161.49686 541.38033,160.59269 498.61396,170.50341 485.7256,128.66395 466.79678,97.991938 445.80665,85.873294 l -9.82712,17.021076 c 15.79984,9.12205 31.96126,35.24497 43.57969,72.58571 -17.16387,5.05069 -35.20907,11.62792 -53.51323,19.88754 -18.30769,-8.12747 -36.27233,-14.73388 -53.39189,-19.6311 2.65125,-8.64634 5.62825,-16.79928 8.81063,-24.42657 13.2465,-31.2284 30.76166,-51.3418 44.54727,-51.422519 3.08304,-0.05194 6.41239,1.056159 9.92346,3.083269 l 9.82713,-17.021081 c -6.41153,-3.701697 -13.00566,-5.67695 -19.71788,-5.68498 -28.58707,-0.01798 -55.64999,35.751261 -72.52148,90.532891 -55.93688,-12.75527 -100.37843,-7.17013 -114.65642,17.56005 -14.32203,24.80651 3.17044,66.25107 42.38201,108.328 -39.01835,42.19867 -56.4317,83.64085 -42.04627,108.43307 3.28674,5.76486 8.29442,10.48792 14.70594,14.18962 20.99014,12.11866 57.10541,13.02285 99.87178,3.11211 12.88836,41.83947 31.81718,72.51148 52.80733,84.63012 6.41151,3.7017 13.00565,5.67695 19.71785,5.68498 28.58709,0.018 55.64999,-35.75127 72.52148,-90.53289 55.74017,12.74347 100.22578,7.082 114.50377,-17.64818 z M 543.34523,296.26748 c -8.50887,8.21576 -17.88097,16.34023 -27.71103,24.2003 0.39599,-7.913 0.63932,-15.91415 0.57734,-24.09156 0.014,-8.13332 -0.28842,-16.24622 -0.67931,-24.20644 9.9131,7.8605 19.22425,15.88232 27.813,24.0977 z m -81.89034,61.10596 c -11.90274,6.86697 -23.64962,13.11149 -35.2289,18.53685 -11.94572,-5.57384 -23.77968,-11.69379 -35.38151,-18.39211 -11.52549,-6.65425 -22.7425,-13.84277 -33.51019,-21.28074 -1.09112,-12.74065 -1.67706,-26.00376 -1.72552,-39.66898 -0.028,-13.34808 0.56637,-26.54035 1.66282,-39.54455 10.63741,-7.49569 21.88545,-14.63887 33.38291,-21.33271 11.90273,-6.86697 23.64962,-13.11149 35.2289,-18.53685 11.94572,5.57384 23.77968,11.69379 35.38149,18.39211 11.52548,6.65425 22.74251,13.84279 33.5102,21.28076 1.09112,12.74063 1.67707,26.00374 1.72553,39.66895 0.028,13.34809 -0.56637,26.54036 -1.66283,39.54456 -10.71373,7.45163 -21.88544,14.63887 -33.3829,21.33271 z m 30.38267,4.31132 c -1.78339,12.60757 -4.1774,24.8626 -7.00577,36.4598 -11.40911,-3.3304 -23.13217,-7.35092 -34.97246,-12.04973 7.13329,-3.71792 14.35469,-7.58848 21.43527,-11.74391 7.03651,-4.07911 13.88809,-8.36673 20.54296,-12.66616 z m -124.41671,36.75689 c -2.86797,-11.42575 -5.2512,-23.69113 -7.11741,-36.67573 6.69322,4.27142 13.58318,8.55465 20.68165,12.65295 7.17482,4.14239 14.36143,8.08804 21.52759,11.71657 -12.02542,4.96424 -23.83916,9.033 -35.09183,12.30621 z m -30.83187,-77.7435 c -9.91314,-7.86052 -19.22427,-15.88233 -27.81302,-24.09771 8.50887,-8.21575 17.88097,-16.34023 27.71105,-24.20029 -0.39601,7.913 -0.63934,15.91414 -0.57736,24.09153 0.0619,8.17743 0.28842,16.24623 0.67933,24.20647 z M 484.70034,194.42626 c 2.86797,11.42577 5.25118,23.69115 7.11741,36.67573 -6.69322,-4.27141 -13.58318,-8.55464 -20.68165,-12.65294 -7.17482,-4.14238 -14.36143,-8.08804 -21.5276,-11.71656 12.02544,-4.96424 23.83917,-9.033 35.09184,-12.30623 z m -82.43848,12.34684 c -7.13329,3.71791 -14.35471,7.58848 -21.43527,11.74391 -7.03651,4.07908 -13.84403,8.29038 -20.4989,12.58983 1.78339,-12.60757 4.1774,-24.86262 7.00579,-36.4598 11.36503,3.40673 23.08809,7.42724 34.92838,12.12606 z m -124.24954,55.68093 c -20.36578,-27.1255 -29.11939,-52.32994 -22.20075,-64.31339 6.91866,-11.98346 33.16721,-17.08113 66.79739,-12.93027 8.19471,0.96569 16.82375,2.58926 25.59366,4.49768 -4.28663,17.4721 -7.55189,36.34806 -9.66357,56.39886 -16.18827,11.82191 -30.7823,24.05543 -43.64989,36.47155 -6.19035,-6.72888 -11.86684,-13.4664 -16.87684,-20.12443 z M 256.1037,395.23487 c -6.94328,-11.94679 1.64153,-37.21613 21.98652,-64.34621 4.98198,-6.69006 10.7186,-13.4533 16.84866,-20.1929 12.84498,12.30104 27.54861,24.55567 43.66472,36.3028 2.1517,20.06979 5.43418,39.06235 9.71843,56.4961 -38.23541,8.76118 -68.90696,7.94683 -84.78313,-1.21928 -3.39069,-2.05939 -5.89452,-4.42092 -7.4352,-7.04051 z m 214.6291,46.36717 c -13.24651,31.22838 -30.76168,51.3418 -44.54728,51.42254 -3.08305,0.0517 -6.41237,-1.05618 -9.92347,-3.08329 -15.79982,-9.12205 -31.96126,-35.24496 -43.57967,-72.58572 17.16384,-5.05068 35.20907,-11.62792 53.51321,-19.88752 18.30769,8.12746 36.27233,14.73385 53.39189,19.6311 -2.69531,8.72266 -5.59599,16.91966 -8.85468,24.50289 z m 58.77941,-33.94448 c -8.19469,-0.96571 -16.82373,-2.58927 -25.59364,-4.49768 4.28663,-17.4721 7.55187,-36.34805 9.66359,-56.39886 16.18825,-11.82194 30.78228,-24.05544 43.64987,-36.47155 6.19033,6.72887 11.86684,13.4664 16.95316,20.16849 20.36579,27.1255 29.11941,52.32992 22.20076,64.31339 -6.99499,11.93939 -33.24354,17.03706 -66.87374,12.88621 z M 445.73033,85.829229 Z"
     id="path8538"
     inkscape:connector-curvature="0"
     style="fill:#ff8080;stroke-width:1" />
  <text
     xml:space="preserve"
     style="font-style:normal;font-weight:normal;font-size:422.13165283px;line-height:1.25;font-family:sans-serif;letter-spacing:0px;word-spacing:0px;fill:#000000;fill-opacity:1;stroke:none;stroke-width:0.99999994;filter:url(#filter8585)"
     x="272.64319"
     y="450.36786"
     id="text8555"><tspan
       sodipodi:role="line"
       id="tspan8553"
       x="272.64319"
       y="450.36786"
       style="font-style:normal;font-variant:normal;font-weight:normal;font-stretch:normal;font-family:'DejaVu Serif';-inkscape-font-specification:'DejaVu Serif';stroke-width:0.12336489">V</tspan></text>
  <path
     style="fill:#ff7f2a;stroke-width:1;filter:url(#filter8649);opacity:0.365"
     inkscape:connector-curvature="0"
     id="path8599"
     d="m 613.3307,404.55441 c 14.32205,-24.80651 -3.17044,-66.25107 -42.382,-108.328 39.01834,-42.19867 56.43169,-83.64085 42.04626,-108.43307 -3.28673,-5.76486 -8.29442,-10.48792 -14.62961,-14.14555 l -9.82712,17.02108 c 3.51107,2.02713 5.93858,4.34457 7.55558,7.00827 6.94329,11.94677 -1.64151,37.21611 -21.98652,64.34619 -4.98198,6.69006 -10.71859,13.45328 -16.84866,20.1929 -12.84497,-12.30104 -27.54859,-24.55567 -43.6647,-36.3028 -2.15171,-20.06979 -5.43419,-39.06235 -9.71842,-56.4961 38.23538,-8.76118 68.90694,-7.94683 84.78311,1.21928 l 9.82712,-17.02108 C 577.49562,161.49686 541.38033,160.59269 498.61396,170.50341 485.7256,128.66395 466.79678,97.991938 445.80665,85.873294 l -9.82712,17.021076 c 15.79984,9.12205 31.96126,35.24497 43.57969,72.58571 -17.16387,5.05069 -35.20907,11.62792 -53.51323,19.88754 -18.30769,-8.12747 -36.27233,-14.73388 -53.39189,-19.6311 2.65125,-8.64634 5.62825,-16.79928 8.81063,-24.42657 13.2465,-31.2284 30.76166,-51.3418 44.54727,-51.422519 3.08304,-0.05194 6.41239,1.056159 9.92346,3.083269 l 9.82713,-17.021081 c -6.41153,-3.701697 -13.00566,-5.67695 -19.71788,-5.68498 -28.58707,-0.01798 -55.64999,35.751261 -72.52148,90.532891 -55.93688,-12.75527 -100.37843,-7.17013 -114.65642,17.56005 -14.32203,24.80651 3.17044,66.25107 42.38201,108.328 -39.01835,42.19867 -56.4317,83.64085 -42.04627,108.43307 3.28674,5.76486 8.29442,10.48792 14.70594,14.18962 20.99014,12.11866 57.10541,13.02285 99.87178,3.11211 12.88836,41.83947 31.81718,72.51148 52.80733,84.63012 6.41151,3.7017 13.00565,5.67695 19.71785,5.68498 28.58709,0.018 55.64999,-35.75127 72.52148,-90.53289 55.74017,12.74347 100.22578,7.082 114.50377,-17.64818 z M 543.34523,296.26748 c -8.50887,8.21576 -17.88097,16.34023 -27.71103,24.2003 0.39599,-7.913 0.63932,-15.91415 0.57734,-24.09156 0.014,-8.13332 -0.28842,-16.24622 -0.67931,-24.20644 9.9131,7.8605 19.22425,15.88232 27.813,24.0977 z m -81.89034,61.10596 c -11.90274,6.86697 -23.64962,13.11149 -35.2289,18.53685 -11.94572,-5.57384 -23.77968,-11.69379 -35.38151,-18.39211 -11.52549,-6.65425 -22.7425,-13.84277 -33.51019,-21.28074 -1.09112,-12.74065 -1.67706,-26.00376 -1.72552,-39.66898 -0.028,-13.34808 0.56637,-26.54035 1.66282,-39.54455 10.63741,-7.49569 21.88545,-14.63887 33.38291,-21.33271 11.90273,-6.86697 23.64962,-13.11149 35.2289,-18.53685 11.94572,5.57384 23.77968,11.69379 35.38149,18.39211 11.52548,6.65425 22.74251,13.84279 33.5102,21.28076 1.09112,12.74063 1.67707,26.00374 1.72553,39.66895 0.028,13.34809 -0.56637,26.54036 -1.66283,39.54456 -10.71373,7.45163 -21.88544,14.63887 -33.3829,21.33271 z m 30.38267,4.31132 c -1.78339,12.60757 -4.1774,24.8626 -7.00577,36.4598 -11.40911,-3.3304 -23.13217,-7.35092 -34.97246,-12.04973 7.13329,-3.71792 14.35469,-7.58848 21.43527,-11.74391 7.03651,-4.07911 13.88809,-8.36673 20.54296,-12.66616 z m -124.41671,36.75689 c -2.86797,-11.42575 -5.2512,-23.69113 -7.11741,-36.67573 6.69322,4.27142 13.58318,8.55465 20.68165,12.65295 7.17482,4.14239 14.36143,8.08804 21.52759,11.71657 -12.02542,4.96424 -23.83916,9.033 -35.09183,12.30621 z m -30.83187,-77.7435 c -9.91314,-7.86052 -19.22427,-15.88233 -27.81302,-24.09771 8.50887,-8.21575 17.88097,-16.34023 27.71105,-24.20029 -0.39601,7.913 -0.63934,15.91414 -0.57736,24.09153 0.0619,8.17743 0.28842,16.24623 0.67933,24.20647 z M 484.70034,194.42626 c 2.86797,11.42577 5.25118,23.69115 7.11741,36.67573 -6.69322,-4.27141 -13.58318,-8.55464 -20.68165,-12.65294 -7.17482,-4.14238 -14.36143,-8.08804 -21.5276,-11.71656 12.02544,-4.96424 23.83917,-9.033 35.09184,-12.30623 z m -82.43848,12.34684 c -7.13329,3.71791 -14.35471,7.58848 -21.43527,11.74391 -7.03651,4.07908 -13.84403,8.29038 -20.4989,12.58983 1.78339,-12.60757 4.1774,-24.86262 7.00579,-36.4598 11.36503,3.40673 23.08809,7.42724 34.92838,12.12606 z m -124.24954,55.68093 c -20.36578,-27.1255 -29.11939,-52.32994 -22.20075,-64.31339 6.91866,-11.98346 33.16721,-17.08113 66.79739,-12.93027 8.19471,0.96569 16.82375,2.58926 25.59366,4.49768 -4.28663,17.4721 -7.55189,36.34806 -9.66357,56.39886 -16.18827,11.82191 -30.7823,24.05543 -43.64989,36.47155 -6.19035,-6.72888 -11.86684,-13.4664 -16.87684,-20.12443 z M 256.1037,395.23487 c -6.94328,-11.94679 1.64153,-37.21613 21.98652,-64.34621 4.98198,-6.69006 10.7186,-13.4533 16.84866,-20.1929 12.84498,12.30104 27.54861,24.55567 43.66472,36.3028 2.1517,20.06979 5.43418,39.06235 9.71843,56.4961 -38.23541,8.76118 -68.90696,7.94683 -84.78313,-1.21928 -3.39069,-2.05939 -5.89452,-4.42092 -7.4352,-7.04051 z m 214.6291,46.36717 c -13.24651,31.22838 -30.76168,51.3418 -44.54728,51.42254 -3.08305,0.0517 -6.41237,-1.05618 -9.92347,-3.08329 -15.79982,-9.12205 -31.96126,-35.24496 -43.57967,-72.58572 17.16384,-5.05068 35.20907,-11.62792 53.51321,-19.88752 18.30769,8.12746 36.27233,14.73385 53.39189,19.6311 -2.69531,8.72266 -5.59599,16.91966 -8.85468,24.50289 z m 58.77941,-33.94448 c -8.19469,-0.96571 -16.82373,-2.58927 -25.59364,-4.49768 4.28663,-17.4721 7.55187,-36.34805 9.66359,-56.39886 16.18825,-11.82194 30.78228,-24.05544 43.64987,-36.47155 6.19033,6.72887 11.86684,13.4664 16.95316,20.16849 20.36579,27.1255 29.11941,52.32992 22.20076,64.31339 -6.99499,11.93939 -33.24354,17.03706 -66.87374,12.88621 z M 445.73033,85.829229 Z" />
  <text
     id="text8559"
     y="450.36786"
     x="272.64319"
     style="font-style:normal;font-weight:normal;font-size:422.13165283px;line-height:1.25;font-family:sans-serif;letter-spacing:0px;word-spacing:0px;fill:#ffffff;fill-opacity:1;stroke:none;stroke-width:0.99999994;"
     xml:space="preserve"><tspan
       style="font-style:normal;font-variant:normal;font-weight:normal;font-stretch:normal;font-family:'DejaVu Serif';-inkscape-font-specification:'DejaVu Serif';stroke-width:0.12336489;fill:#ffffff;"
       y="450.36786"
       x="272.64319"
       id="tspan8557"
       sodipodi:role="line">V</tspan></text>
</svg>
